<svg xmlns="http://www.w3.org/2000/svg" viewBox="0 0 64 64">
  <rect width="64" height="64" rx="14" fill="#2a1a10"/>
  <path d="M22 12c-2 3 2 5 0 8M31 10c-2 3 2 5 0 8M40 12c-2 3 2 5 0 8" fill="none" stroke="#e2c9a6" stroke-width="2.5" stroke-linecap="round"/>
  <path d="M13 25h36v9c0 10-8 17-18 17s-18-7-18-17z" fill="#f6eee2"/>
  <path d="M49 29h2a6 6 0 0 1 0 12h-3" fill="none" stroke="#f6eee2" stroke-width="4"/>
  <rect x="10" y="52" width="42" height="4" rx="2" fill="#b8663f"/>
  <path d="M25 33l-4 4 4 4M37 33l4 4-4 4" fill="none" stroke="#b8663f" stroke-width="2.8" stroke-linecap="round" stroke-linejoin="round"/>
</svg>
